<?xml version="1.0" encoding="UTF-8" standalone="no"?>
<!-- Created with Inkscape (http://www.inkscape.org/) -->
<svg xmlns:dc="http://purl.org/dc/elements/1.1/" xmlns:cc="http://creativecommons.org/ns#" xmlns:rdf="http://www.w3.org/1999/02/22-rdf-syntax-ns#" xmlns:svg="http://www.w3.org/2000/svg" xmlns="http://www.w3.org/2000/svg" version="1.1" width="1000" height="1000" id="svg2">
  <defs id="defs4">
    <marker refX="0" refY="0" orient="auto" id="Arrow1Lstart" style="overflow:visible">
      <path d="M 0,0 5,-5 -12.5,0 5,5 0,0 z" transform="matrix(0.8,0,0,0.8,10,0)" id="path3964" style="fill-rule:evenodd;stroke:#000000;stroke-width:1pt"/>
    </marker>
  </defs>
  <metadata id="metadata7">
    <rdf:RDF>
      <cc:Work rdf:about="">
        <dc:format>image/svg+xml</dc:format>
        <dc:type rdf:resource="http://purl.org/dc/dcmitype/StillImage"/>
        <dc:title/>
      </cc:Work>
    </rdf:RDF>
  </metadata>
  <g transform="translate(0,-3000)" id="layer3" style="display:inline">
    <rect width="1233.1942" height="1117.2288" x="-101.82338" y="-49.346462" transform="translate(0,3000)" id="rect3057" style="fill:#000000"/>
  </g>
  <g transform="translate(0,-3000)" id="layer11">
    <path d="m 95.235614,3743.4106 0,-213.172 799.394846,0 0,213.172 z" id="path4592" style="fill:#ffffff;fill-opacity:1;stroke:none"/>
  </g>
  <g transform="translate(0,-3000)" id="layer10">
    <path d="m 371.02687,3042.6078 -299.773096,0 423.679276,915.3071 434.33791,-915.3071 -305.10243,0 -129.23548,295.7761 z" id="path4587" style="fill:#a40204;fill-opacity:1;stroke:#ffffff;stroke-width:18.65254784;stroke-miterlimit:4;stroke-opacity:1;stroke-dasharray:none"/>
  </g>
  <g transform="translate(0,-3000)" id="layer5" style="display:inline">
    <rect width="767.41888" height="181.17172" x="111.27059" y="3546.25" id="rect3822" style="fill:#000000;fill-opacity:1"/>
    <rect width="746.10217" height="159.87636" x="121.92873" y="3556.8872" id="rect3822-4" style="fill:#ffffff;fill-opacity:1"/>
  </g>
  <g transform="translate(0,-3000)" id="layer6" style="display:inline">
    <path d="m 718.93543,3471.766 -114.52431,-57.9214 -92.45414,101.352 -108.68791,-116.0587 c 0,0 36.19838,-45.7751 54.84174,-68.2179 11.50809,-13.8534 4.84648,-20.515 32.82524,-20.515 32.97343,0 75.14316,0 75.14316,0 l 19.45195,11.9909 202.56231,-0.045 z" id="path3845" style="fill:#000000;fill-opacity:1"/>
    <path d="m 731.82042,3446.5686 -74.6102,-37.0386 19.1855,0 57.28997,28.5118 -1.86527,8.5268 z" id="path3847" style="fill:#a40204;fill-opacity:1"/>
    <path d="m 780.31705,3339.4497 -163.60947,0 -19.45195,-9.8592 187.32487,0 z" id="path3849" style="fill:#a40204;fill-opacity:1"/>
    <path d="m 715.88204,3470.5425 70.69312,-148.9762 2.1827,-0.7032 -68.22225,155.8191 z" id="path3851" style="fill:#ffffff;fill-opacity:1"/>
  </g>
  <g transform="translate(0,-3000)" id="layer7" style="display:inline">
    <path d="m 262.84623,3446.3063 93.52503,-17.3243 167.34003,82.3376 c 24.59849,11.6781 32.90697,-8.3598 10.92506,-19.9849 l -39.7033,-18.9189 -3.51252,-10.691 53.14163,26.2791 c 20.71659,10.136 36.5576,-7.6041 13.85619,-22.9826 l -53.35959,-26.7131 c -4.50876,-2.6986 -4.53552,-5.751 -3.57026,-7.1759 1.12608,-1.6625 4.06902,-2.157 7.83363,-0.2851 l 28.91147,15.0553 28.91148,15.0552 c 11.59553,5.4808 19.44487,6.2952 24.26294,-0.6777 4.39832,-6.3654 2.33208,-13.745 -10.20692,-21.3056 l -62.28622,-32.1091 c -3.03586,-1.6417 -3.91091,-4.1088 -3.20668,-5.7204 0.83182,-1.9038 2.81092,-2.329 7.05279,-0.9412 l 71.82995,37.0386 c 4.00609,2.2875 15.16046,3.88 20.07528,-2.2859 3.84415,-4.8226 2.97414,-14.9738 -7.1524,-20.0971 l -91.26355,-47.1643 c 0,0 -9.71628,-5.4884 -20.13957,-5.6119 -5.25412,-0.1492 -10.38216,10.4957 -24.6884,11.4741 -20.09934,-0.9091 -34.84509,-14.3891 -34.84509,-14.3891 l 23.44895,-30.377 c 6.44538,-8.1885 13.58967,-17.0538 31.44286,-18.3861 l -78.07423,0.2665 -16.78733,8.5269 -193.45351,0 z" id="path3854" style="fill:#ffffff;fill-opacity:1"/>
  </g>
  <g transform="translate(0,-3000)" id="layer8" style="display:inline">
    <path d="m 370.76035,3466.82 c -4.14435,13.3373 1.80205,21.1354 9.09527,24.3867 6.80784,3.0348 17.64621,3.9807 26.61104,-7.0665 -2.83002,12.0681 0.34042,19.1729 9.40426,23.6971 7.75026,3.8685 18.14761,5.1652 24.70329,-5.5775 -2.67567,11.6103 3.05962,18.1438 9.45892,21.2312 7.23767,3.4919 16.92116,3.8796 23.5827,-5.5097 -2.38404,11.8601 3.45636,18.5703 9.68364,21.6787 6.52313,3.2558 16.60682,5.4271 23.89094,-5.4244 l 17.58675,-37.838 c 2.71498,-5.8413 0.0167,-12.8238 -7.315,-16.3508 -6.68595,-3.2164 -12.72794,-1.0556 -16.40039,5.1593 l -3.46403,5.8622 c -1.35577,1.8083 -4.42531,2.8661 -6.77341,1.3159 -2.0794,-1.3728 -2.34035,-3.9914 -1.75348,-5.8458 l 5.59575,-11.1916 c 4.12661,-9.1872 0.1754,-18.4872 -6.81912,-21.8178 -8.92355,-4.2491 -17.51758,0.2688 -21.95913,7.9617 l -4.79633,10.1256 c -2.00715,4.2373 -6.26901,4.0603 -7.83296,3.2433 -1.3596,-0.7102 -3.69619,-4.0177 -1.75979,-7.7731 l 8.79333,-17.0538 c 4.92392,-11.6484 -1.22051,-19.9155 -6.66161,-22.3831 -8.91784,-4.0443 -18.05182,0.5285 -22.38308,9.3263 l -8.52689,17.3202 c -1.4947,3.0363 -4.77724,4.1299 -6.88175,3.2207 -1.55018,-0.6697 -4.23998,-3.2777 -2.17803,-7.4841 l 6.66161,-13.5897 c 4.22721,-8.6235 -0.30087,-18.1242 -6.74392,-21.2019 -6.74908,-3.2239 -17.68066,-0.2879 -21.76781,8.145 z" id="path3857" style="fill:#000000;fill-opacity:1"/>
  </g>
  <g transform="translate(0,-3000)" id="layer9">
    <path d="m 183.11077,3571.5493 0,130.6056 34.25717,0 0,-130.6056 z" id="path3860" style="fill:#000000;fill-opacity:1"/>
    <path d="m 277.31801,3702.1549 -32.11612,0 0,-130.6056 17.12866,0 40.68038,53.5269 0,-53.5269 32.11612,0 0,130.6056 -17.12859,0 -40.68045,-53.5268 z" id="path3862" style="fill:#000000;fill-opacity:1"/>
    <path d="m 442.98366,3605.8065 21.41082,-23.5518 c -11.1912,-12.1344 -40.23079,-14.1591 -62.39734,-4.5815 -22.12318,9.559 -38.07643,30.3088 -38.23319,63.7287 -0.0887,34.7145 32.88216,61.2362 69.58493,61.2883 8.21435,-0.038 24.02897,-2.482 35.32776,-11.2407 l 0,-44.9626 -25.42533,0 0,23.2842 c -6.36081,5.2622 -21.27174,4.0164 -28.81238,1.2269 -7.54057,-2.7894 -13.09565,-7.7794 -16.85846,-14.8762 -8.02655,-15.1387 -1.87377,-35.5216 8.80183,-45.4973 10.79357,-10.086 26.3473,-11.153 36.60136,-4.818 z" id="path3864" style="fill:#000000;fill-opacity:1"/>
    <path d="m 504.27198,3672.1798 -9.9025,21.4108 c 29.6775,12.4512 64.74559,16.2226 75.47291,-19.5374 12.04408,-40.149 -42.49535,-42.2307 -27.5663,-70.9231 8.33013,-16.0097 30.5103,-1.6058 30.5103,-1.6058 l 8.56433,-21.4106 c 0,0 -17.12438,-7.8113 -32.26002,-7.6446 -16.07829,0.1771 -28.26829,9.1102 -32.77517,19.1528 -9.84273,21.9324 -0.24269,39.9219 11.72003,49.8226 11.0134,9.115 19.97507,16.4702 12.23323,30.4677 -4.27938,7.7373 -12.62794,8.9329 -20.48382,6.7118 -8.0761,-2.2836 -15.51299,-6.4442 -15.51299,-6.4442 z" id="path3866" style="fill:#000000;fill-opacity:1"/>
    <path d="m 2913,2587.5 a 235.5,235.5 0 1 1 -471,0 235.5,235.5 0 1 1 471,0 z" transform="matrix(0.27729419,0,0,0.27729419,-77.334993,2919.3534)" id="path3870" style="fill:#000000;fill-opacity:1"/>
    <path d="m 2913,2587.5 a 235.5,235.5 0 1 1 -471,0 235.5,235.5 0 1 1 471,0 z" transform="matrix(0.14944338,0,0,0.14944338,265.11937,3250.0335)" id="path3870-0" style="fill:#ffffff;fill-opacity:1"/>
    <path d="m 3200,2800 a 240,240 0 0 1 -1e-4,-480 l 1e-4,240 z" transform="matrix(0.27097977,0,0,0.27097977,-49.195867,2943.1438)" id="path3936" style="fill:#000000;fill-opacity:1"/>
    <path d="m 3200,2800 a 240,240 0 0 1 -1e-4,-480 l 1e-4,240 z" transform="matrix(0.14756034,0,0,0.14756034,346.11142,3259.0679)" id="path3936-8" style="fill:#ffffff;fill-opacity:1"/>
  </g>
</svg>